<svg xmlns="http://www.w3.org/2000/svg" viewBox="0 0 800 450" role="img" aria-label="Imagen no disponible">
  <defs>
    <linearGradient id="g" x1="0" x2="1" y1="0" y2="1">
      <stop offset="0%" stop-color="#0b3d91" />
      <stop offset="100%" stop-color="#12365f" />
    </linearGradient>
  </defs>
  <rect width="800" height="450" rx="28" fill="url(#g)" />
  <circle cx="640" cy="102" r="110" fill="#ffffff" fill-opacity="0.08" />
  <circle cx="128" cy="354" r="136" fill="#d7192d" fill-opacity="0.12" />
  <path d="M110 298h580" stroke="#ffffff" stroke-opacity="0.14" stroke-width="6" stroke-linecap="round" />
  <path d="M182 252l174-64 116-104h38l-58 104 118 12 74-34h30c18 0 32 14 32 32 0 11-6 21-15 27l-53 37 53 37c9 6 15 16 15 27 0 18-14 32-32 32h-30l-74-34-118 12 58 104h-38L356 274l-174-64z" fill="#ffffff" fill-opacity="0.9" />
  <text x="50%" y="392" text-anchor="middle" fill="#f4f8ff" font-family="Segoe UI, Arial, sans-serif" font-size="28" font-weight="700">Destino</text>
</svg>