<svg xmlns="http://www.w3.org/2000/svg" viewBox="0 0 64 64" role="img" aria-label="Airplane favicon">
  <defs>
    <linearGradient id="g" x1="0" x2="1" y1="0" y2="1">
      <stop offset="0%" stop-color="#0b3d91"/>
      <stop offset="100%" stop-color="#0f63e0"/>
    </linearGradient>
  </defs>
  <circle cx="32" cy="32" r="30" fill="url(#g)"/>
  <path d="M14 33.5c0-1.6 1.3-2.9 2.9-2.9h11.8l9.1-13.9c.9-1.4 2.3-2.2 3.9-2.2h2.1l-6 16.1h9.8l4.7-4.2c.6-.5 1.3-.8 2.1-.8h1.3c1.2 0 2.2 1 2.2 2.2 0 .7-.3 1.4-.9 1.9l-4.8 4.2 4.8 4.2c.6.5.9 1.2.9 1.9 0 1.2-1 2.2-2.2 2.2h-1.3c-.8 0-1.5-.3-2.1-.8l-4.7-4.2h-9.8l6 16.1h-2.1c-1.6 0-3-.8-3.9-2.2l-9.1-13.9H16.9c-1.6 0-2.9-1.3-2.9-2.9Z" fill="#ffffff"/>
  <path d="M20 41.5h9.3l6.2 9.5c.5.8 1.3 1.2 2.2 1.2h.7l-2.6-10.7h9.1l3.1 2.7c.3.3.7.4 1.1.4h.4c.5 0 .9-.4.9-.9 0-.3-.1-.6-.4-.8l-3.4-3 3.4-3c.2-.2.4-.5.4-.8 0-.5-.4-.9-.9-.9h-.4c-.4 0-.8.1-1.1.4l-3.1 2.7h-9.1l2.6-10.7h-.7c-.9 0-1.7.4-2.2 1.2l-6.2 9.5H20c-.9 0-1.7.7-1.7 1.7s.8 1.7 1.7 1.7Z" fill="#d7192d" opacity=".95"/>
</svg>
